<?xml version="1.0" encoding="UTF-8"?>
<svg width="68px" height="192px" viewBox="0 0 68 192" version="1.1" xmlns="http://www.w3.org/2000/svg" xmlns:xlink="http://www.w3.org/1999/xlink">
    <title>Aramco_bottle</title>
    <g id="Aramco" stroke="none" stroke-width="1" fill="none" fill-rule="evenodd">
        <g id="Aramco-RVM_2" transform="translate(-136.000000, -295.000000)" fill="#7DC242" fill-rule="nonzero" stroke="#7DC242" stroke-width="2.68686106">
            <g id="Aramco_bottle" transform="translate(138.000000, 297.000000)">
                <path d="M44.8860647,188 L19.1139353,188 C8.56714561,187.989517 0.0198845504,179.395971 0.00945766218,168.792069 L0.00945766218,65.7728997 C0.00945766218,55.7029993 4.4261859,45.0340398 10.0629526,41.5347732 C14.0351707,39.0719741 17.5061327,32.910222 17.496675,28.3459613 L17.496675,18.2380254 C17.494161,17.5100689 17.7800225,16.811061 18.291108,16.2954236 C18.8021936,15.7797862 19.4964417,15.4899434 20.2204817,15.4899434 L20.2204817,15.4899434 C20.9436511,15.4874222 21.6379295,15.7751328 22.1492906,16.289263 C22.6606516,16.8033931 22.9468126,17.5014311 22.9442885,18.2285165 L22.9442885,28.3269435 C22.9442885,34.8500329 18.5559332,42.704365 12.9191665,46.2036316 C9.39145855,48.4001821 5.45707108,56.9676799 5.45707108,65.7728997 L5.45707108,168.792069 C5.46228748,176.367965 11.5693849,182.508134 19.1044776,182.513378 L44.8860647,182.513378 C52.4211575,182.508134 58.5282549,176.367965 58.5334713,168.792069 L58.5334713,65.7728997 C58.5334713,56.9676799 54.5234225,48.3431288 50.9673415,46.0990339 C45.2359982,42.5332052 40.8381853,34.688382 40.9516773,28.1843104 L41.1219152,18.190481 C41.2266484,16.7371056 42.4415014,15.6186068 43.8906618,15.6413331 C45.3398222,15.6640593 46.519388,16.8201084 46.5789863,18.2760609 L46.4087483,28.2793991 C46.2952564,32.7675889 49.7378454,38.9198321 53.8046402,41.4396844 C59.4792375,45.0055131 63.9905423,55.7029993 63.9905423,65.7824086 L63.9905423,168.792069 C63.9801154,179.395971 55.4328544,187.989517 44.8860647,188 Z" id="Path"></path>
                <path d="M47.2977686,29.2302868 L16.7022314,29.2302868 C15.2576167,29.1447382 14.1296777,27.9419306 14.1296777,26.4869759 C14.1296777,25.0320212 15.2576167,23.8292135 16.7022314,23.743665 L47.2977686,23.743665 C48.7423833,23.8292135 49.8703223,25.0320212 49.8703223,26.4869759 C49.8703223,27.9419306 48.7423833,29.1447382 47.2977686,29.2302868 L47.2977686,29.2302868 Z" id="Path"></path>
                <path d="M61.2667356,105.624602 L2.73326437,105.624602 C1.22372414,105.624602 0,104.394251 0,102.876536 C0,101.358822 1.22372414,100.128471 2.73326437,100.128471 L61.2667356,100.128471 C62.7762759,100.128471 64,101.358822 64,102.876536 C64,104.394251 62.7762759,105.624602 61.2667356,105.624602 Z" id="Path"></path>
                <path d="M61.2667356,158.807749 L2.73326437,158.807749 C1.28864967,158.7222 0.1607107,157.519393 0.1607107,156.064438 C0.1607107,154.609483 1.28864967,153.406675 2.73326437,153.321127 L61.2667356,153.321127 C62.7113503,153.406675 63.8392893,154.609483 63.8392893,156.064438 C63.8392893,157.519393 62.7113503,158.7222 61.2667356,158.807749 L61.2667356,158.807749 Z" id="Path"></path>
                <path d="M49.8040491,20.9765819 L14.2999852,20.9765819 L14.2999852,18.2760609 C14.2999852,18.2285165 14.2337816,13.949522 14.2337816,8.43437358 C14.2337816,2.38672804 19.2085119,0.0760710131 22.5565243,0 L40.6206591,0 C48.1867888,0 49.8040491,5.32497092 49.8040491,7.37888827 L49.8040491,20.9765819 Z M19.681395,15.48996 L44.346978,15.48996 L44.346978,7.43594153 C44.346978,6.82737343 43.8173489,5.5341662 40.6206591,5.5341662 L22.6511009,5.5341662 C21.8576252,5.49374774 21.0836444,5.7896684 20.5173765,6.34996566 C19.9511086,6.91026292 19.6444365,7.68360094 19.6719373,8.48191796 C19.653022,11.2490011 19.6624797,13.7308179 19.681395,15.48996 Z" id="Shape"></path>
            </g>
        </g>
    </g>
</svg>