<?xml version="1.0" encoding="UTF-8"?>
<svg width="177px" height="180px" viewBox="0 0 177 180" version="1.1" xmlns="http://www.w3.org/2000/svg" xmlns:xlink="http://www.w3.org/1999/xlink">
    <title>Aramco_recyclingAsset 7</title>
    <g id="Aramco" stroke="none" stroke-width="1" fill="none" fill-rule="evenodd">
        <g id="Aramco-RVM_3" transform="translate(-82.000000, -305.000000)" fill="#7DC242" fill-rule="nonzero">
            <g id="Aramco_recyclingAsset-7" transform="translate(82.000000, 305.000000)">
                <path d="M47.1416009,62.8922458 C44.9412085,62.8864246 42.910427,61.7111596 41.8118489,59.8077465 C40.7132709,57.9043333 40.7131764,55.5608713 41.8116009,53.6573698 L65.4416009,12.8244027 C70.0356896,4.88810851 78.5202403,-7.09378195e-15 87.7016009,-7.09378195e-15 C96.8829615,-7.09378195e-15 105.367512,4.88810851 109.961601,12.8244027 L131.961601,50.8519753 C133.665399,53.7935854 132.65804,57.5571693 129.711601,59.2581754 C126.765162,60.9591814 122.995399,59.9534731 121.291601,57.011863 L99.2916009,18.9643232 C96.9008621,14.833679 92.485086,12.2894705 87.7066009,12.2894705 C82.9281158,12.2894705 78.5123397,14.833679 76.1216009,18.9643232 L52.4916009,59.8372248 C51.3819134,61.7355446 49.3431479,62.8997311 47.1416009,62.8922458 Z" id="Path"></path>
                <path d="M126.581601,62.1234717 C126.092497,62.1228602 125.604241,62.0827954 125.121601,62.0036683 L101.471601,59.0085851 C99.2869218,58.7339415 97.4149562,57.3165581 96.5608555,55.2903495 C95.7067547,53.264141 96.0002771,50.9369366 97.3308555,49.1853716 C98.6614339,47.4338067 100.826922,46.5239857 103.011601,46.7986294 L124.191601,49.474237 L132.191601,30.2158523 C133.627395,27.3012876 137.085839,26.0038983 140.088827,27.2533128 C143.091815,28.5027273 144.603894,31.8681376 143.541601,34.9381001 L134.621601,56.5526169 C133.36914,59.9030579 130.163639,62.1241248 126.581601,62.1234717 Z" id="Path"></path>
                <path d="M106.341601,159.613429 C104.079833,159.70439 101.949768,158.551574 100.791762,156.60979 C99.6337547,154.668006 99.6337547,152.24906 100.791762,150.307276 C101.949768,148.365492 104.079833,147.212675 106.341601,147.303637 L150.341601,147.303637 C155.122275,147.304557 159.54022,144.758887 161.930956,140.625717 C164.321692,136.492547 164.321938,131.39993 161.931601,127.26653 L138.261601,86.4135961 C136.557802,83.4637153 137.571877,79.6934266 140.526601,77.9924206 C143.481324,76.2914145 147.257802,77.3038276 148.961601,80.2537083 L172.591601,121.106643 C177.185426,129.046219 177.18828,138.829297 172.599089,146.771545 C168.009898,154.713792 159.525675,159.608927 150.341601,159.613429 L106.341601,159.613429 Z" id="Path"></path>
                <path d="M119.271601,179.999981 C117.359668,180.004763 115.554977,179.118665 114.391601,177.603895 L100.101601,159.094281 C97.4339179,155.918047 97.4339179,151.288544 100.101601,148.112309 L114.521601,129.143449 C116.623974,126.575022 120.385957,126.129787 123.031557,128.136287 C125.677157,130.142786 126.256286,133.880447 124.341601,136.591223 L111.431601,153.563361 L124.171601,170.066269 C125.604699,171.922949 125.856016,174.431495 124.819643,176.534767 C123.78327,178.63804 121.639442,179.97026 119.291601,179.97001 L119.271601,179.999981 Z" id="Shape"></path>
                <path d="M25.7116009,159.563511 C16.5270479,159.564082 8.03974772,154.673129 3.44633059,146.732767 C-1.14708654,138.792404 -1.14888946,129.008758 3.4416009,121.066708 L25.4416009,83.0391357 C27.1972823,80.2099179 30.8864862,79.284616 33.7730515,80.949496 C36.6596168,82.614376 37.6995651,86.2673039 36.1216009,89.1990234 L14.1216009,127.216612 C11.7312635,131.350012 11.7315094,136.442629 14.1222458,140.575799 C16.5129822,144.708969 20.9309264,147.254639 25.7116009,147.253719 L72.9616009,147.253719 C75.2233686,147.162757 77.3534334,148.315574 78.5114403,150.257358 C79.6694471,152.199141 79.6694471,154.618088 78.5114403,156.559872 C77.3534334,158.501656 75.2233686,159.654472 72.9616009,159.563511 L25.7116009,159.563511 Z" id="Path"></path>
                <path d="M42.0816009,113.858542 C39.5968237,113.859223 37.3540996,112.371771 36.3916009,110.084737 L28.1216009,90.4469747 L7.4416009,93.2024512 C4.06714107,93.6518256 0.966712966,91.2850587 0.516600895,87.9161294 C0.066488824,84.5472002 2.43714107,81.4518535 5.8116009,81.0024791 L29.0116009,77.8676254 C33.0855024,77.1625268 37.0836701,79.4584399 38.5216009,83.3286604 L47.7616009,105.292604 C48.3955293,106.797749 48.4039041,108.492793 47.7848793,110.004109 C47.1658545,111.515425 45.9702487,112.718942 44.4616009,113.349377 C43.7105845,113.676999 42.9011397,113.850167 42.0816009,113.858542 L42.0816009,113.858542 Z" id="Shape"></path>
            </g>
        </g>
    </g>
</svg>